<?xml version="1.0" encoding="UTF-8"?>
<svg version="1.1" xmlns="http://www.w3.org/2000/svg" width="313" height="313">
<path d="M0 0 C4.99215052 3.68468253 8.77889733 7.9419005 10.625 13.9375 C13.65443771 45.42956181 5.84077884 79.68805977 1.35546875 110.68041992 C1.18331345 111.87388535 1.01115814 113.06735077 0.83378601 114.29698181 C0.51067051 116.53068735 0.18488162 118.76400865 -0.14421082 120.99684143 C-1.10620263 127.63120765 -1.8388227 134.25515262 -2.375 140.9375 C-1.30185547 139.39255859 -1.30185547 139.39255859 -0.20703125 137.81640625 C6.12310823 128.75015859 12.64820596 119.87614888 19.40625 111.125 C22.02392733 107.73334595 24.59260657 104.30847748 27.14550781 100.86791992 C33.27710454 92.60847701 39.68734159 84.60970087 46.21630859 76.66210938 C48.06517085 74.39861493 49.87690745 72.10666695 51.6875 69.8125 C75.76199015 39.70671653 75.76199015 39.70671653 85.30859375 38.63671875 C91.97640299 38.60834509 96.52793942 38.90482738 101.50390625 43.77734375 C106.57807316 49.28204603 108.00429298 53.11123372 107.90625 60.5625 C107.13068109 67.11174855 103.37510038 71.61922693 98.625 75.9375 C97.41514445 77.18602673 96.20697439 78.43618778 95 79.6875 C90.18261708 84.495912 84.94293923 88.69924326 79.625 92.9375 C78.47731379 93.86390139 77.33020145 94.79101407 76.18359375 95.71875 C68.93182954 101.57204328 61.59298418 107.29940434 54.17333984 112.93823242 C50.47633431 115.74961013 46.79558468 118.57832527 43.14453125 121.44921875 C33.79000561 128.80324663 24.2852767 135.84573427 14.50634766 142.62548828 C11.52698712 144.70323076 8.57655696 146.82049481 5.625 148.9375 C19.81753417 147.2468533 33.97161436 145.3403879 48.12255859 143.33584595 C65.26282478 140.91030503 82.39101995 138.60573332 99.625 136.9375 C100.33172852 136.86692383 101.03845703 136.79634766 101.76660156 136.72363281 C109.20518309 136.00006518 116.65584304 135.79699479 124.125 135.6875 C124.97505615 135.66598877 125.8251123 135.64447754 126.70092773 135.62231445 C133.19835263 135.58807328 137.28793193 136.92653445 142.3125 141.25 C147.07154217 146.78077873 148.14516457 151.14643521 147.90234375 158.32421875 C147.23733204 164.59031505 144.06358629 167.79397852 139.44140625 171.640625 C118.77002695 186.39954528 60.57264437 169.2878243 36.95075989 165.96212769 C29.76435776 164.95146251 22.57256088 163.99074761 15.375 163.0625 C14.446875 162.94253662 13.51875 162.82257324 12.5625 162.69897461 C10.58349178 162.44391732 8.60427777 162.19045702 6.625 161.9375 C11.98202813 166.35643104 17.44280636 170.57046573 23.125 174.5625 C29.60273478 179.12300522 35.85340223 183.94548086 42.08740234 188.83227539 C46.27043614 192.11039889 50.47624753 195.34113948 54.75 198.5 C61.5969749 203.59961931 68.18158817 209.01405435 74.77978516 214.42871094 C76.40220256 215.75532374 78.03433645 217.07003481 79.66796875 218.3828125 C106.60722778 240.07416392 106.60722778 240.07416392 107.91015625 250.140625 C108.14137103 256.05168111 107.06301759 260.89698381 103.265625 265.6328125 C98.86593715 270.3273248 95.20530798 272.00621949 88.75 272.25 C82.45199736 272.38163028 77.6760229 270.141793 73.16015625 265.93359375 C71.99060234 264.75922755 70.83338984 263.57246766 69.6875 262.375 C69.07197266 261.74440674 68.45644531 261.11381348 67.82226562 260.46411133 C63.89745688 256.39580047 60.22404736 252.21292808 56.78515625 247.72265625 C54.53669811 244.82364965 52.20120397 242.0143284 49.84765625 239.20068359 C43.39060374 231.46670303 37.242424 223.54834342 31.23876953 215.45825195 C27.05341405 209.82153195 22.77871437 204.26731067 18.4375 198.75 C11.11637884 189.4216749 4.2028744 179.8043116 -2.375 169.9375 C-1.05367879 181.66062996 0.48088742 193.3443877 2.11221313 205.02807617 C4.21772628 220.14628028 6.21690676 235.27037274 7.9375 250.4375 C8.0184491 251.14694763 8.09939819 251.85639526 8.18280029 252.58734131 C9.52767971 264.43178486 10.79638446 276.2585326 10.9375 288.1875 C10.96650391 289.02023437 10.99550781 289.85296875 11.02539062 290.7109375 C11.08581007 296.64133864 9.97710783 300.99653609 6.625 305.9375 C4.80859375 307.77734375 4.80859375 307.77734375 3.0625 308.875 C2.48371094 309.25527344 1.90492188 309.63554687 1.30859375 310.02734375 C-3.86914187 312.82644445 -9.66191948 312.48304615 -15.375 311.9375 C-18.8125 310.25 -18.8125 310.25 -21.375 307.9375 C-22.2825 307.133125 -23.19 306.32875 -24.125 305.5 C-31.3295567 297.29481042 -28.86940637 284.10663044 -28.375 273.9375 C-26.52949995 247.19356787 -22.18321149 220.60113308 -18.37329102 194.08203125 C-18.27385287 193.38852129 -18.17441473 192.69501133 -18.07196331 191.98048592 C-17.5991594 188.68324541 -17.12414205 185.38637822 -16.64494324 182.09005737 C-16.47755142 180.92709137 -16.31015961 179.76412537 -16.13769531 178.56591797 C-15.91596649 177.0378804 -15.91596649 177.0378804 -15.6897583 175.47897339 C-15.31354514 172.86810614 -15.31354514 172.86810614 -15.375 169.9375 C-15.95765625 170.7625 -16.5403125 171.5875 -17.140625 172.4375 C-37.25289429 200.81291741 -58.53192258 228.65430527 -81.25 255 C-81.76095215 255.59482178 -82.2719043 256.18964355 -82.79833984 256.80249023 C-95.36579153 271.25811497 -95.36579153 271.25811497 -103.828125 272.21484375 C-109.08668803 272.41164626 -112.97899272 272.06354962 -117.375 268.9375 C-122.64983017 263.78304977 -125.46579175 260.0945203 -125.625 252.625 C-125.51797674 245.37120103 -122.38658963 240.0280123 -117.375 234.9375 C-114.78664465 232.50899558 -112.08902122 230.22391016 -109.375 227.9375 C-108.35633383 227.06822018 -107.3381355 226.19839192 -106.3203125 225.328125 C-99.76877256 219.73915672 -93.1390115 214.26854314 -86.375 208.9375 C-85.3189086 208.09908657 -84.26292541 207.26053683 -83.20703125 206.421875 C-75.11296667 200.00986003 -66.89263546 193.7803541 -58.61425781 187.60888672 C-54.44526568 184.49714226 -50.285959 181.37247279 -46.125 178.25 C-44.43753856 176.98432358 -42.75003957 175.71869723 -41.0625 174.453125 C-40.26585938 173.85564453 -39.46921875 173.25816406 -38.6484375 172.64257812 C-33.890625 169.07421875 -29.1328125 165.50585937 -24.375 161.9375 C-34.17161666 163.11037484 -43.94635406 164.41822375 -53.71875 165.77734375 C-120.22171453 175.00965879 -120.22171453 175.00965879 -143 175.3125 C-143.7830249 175.32667969 -144.5660498 175.34085938 -145.37280273 175.35546875 C-151.52844672 175.29996875 -155.44332107 173.59964233 -160.0625 169.625 C-164.95406602 163.94020706 -165.9962618 159.3119352 -165.78515625 151.9140625 C-165.1578749 147.3617921 -163.56399662 144.22962338 -160.375 140.9375 C-158.09106596 139.25640692 -155.96585117 138.15959961 -153.375 136.9375 C-152.715 136.6075 -152.055 136.2775 -151.375 135.9375 C-117.67378377 134.08695803 -83.43985531 140.97993436 -50.17279053 145.59439087 C-41.5819419 146.78216642 -32.98600858 147.90566145 -24.375 148.9375 C-31.14776899 143.6834457 -37.94667262 138.48494743 -44.875 133.4375 C-50.10728122 129.62382554 -55.27553215 125.74519921 -60.390625 121.77514648 C-63.3328901 119.49551742 -66.29374977 117.24613265 -69.28515625 115.03125 C-76.88576428 109.40214942 -84.25971149 103.62629884 -91.42578125 97.453125 C-94.05126796 95.213637 -96.71988556 93.0632016 -99.4375 90.9375 C-124.06035042 71.42429337 -124.06035042 71.42429337 -125.7265625 60.66796875 C-125.94613913 54.80926514 -124.76666825 49.9202127 -121.015625 45.2421875 C-117.39557607 41.37955797 -114.11518411 39.32661434 -108.76171875 38.56640625 C-100.24710403 38.35692948 -96.07690544 40.57213142 -89.8828125 46.203125 C-87.61994455 48.38844919 -85.41084093 50.53878927 -83.375 52.9375 C-83.375 53.5975 -83.375 54.2575 -83.375 54.9375 C-82.715 54.9375 -82.055 54.9375 -81.375 54.9375 C-79.921875 56.52734375 -79.921875 56.52734375 -78.125 58.875 C-74.33450327 63.74061945 -70.43923267 68.50407684 -66.5 73.25 C-60.62556921 80.35935217 -54.92139313 87.56813638 -49.375 94.9375 C-48.9301123 95.52789062 -48.48522461 96.11828125 -48.02685547 96.7265625 C-45.5666654 99.99428283 -43.11306084 103.26685367 -40.6640625 106.54296875 C-38.29068257 109.71741898 -35.90906881 112.885528 -33.5234375 116.05078125 C-32.86561279 116.92468506 -32.20778809 117.79858887 -31.5300293 118.69897461 C-30.25929883 120.3869222 -28.98740815 122.07399726 -27.71411133 123.76000977 C-23.47320972 129.39936554 -19.38789962 135.13385254 -15.375 140.9375 C-15.74779548 138.02053884 -16.12304193 135.1039251 -16.5 132.1875 C-16.62834229 131.19234375 -16.75668457 130.1971875 -16.88891602 129.171875 C-17.80912054 122.10338304 -18.77577267 115.04284028 -19.76953125 107.984375 C-28.57195867 45.28569561 -28.57195867 45.28569561 -28.875 22 C-28.89353027 21.16678223 -28.91206055 20.33356445 -28.93115234 19.47509766 C-28.86048809 12.90609313 -26.92886054 7.69731704 -22.4375 2.84375 C-15.26791828 -2.04460117 -8.26180653 -2.60093909 0 0 Z " fill="#000000" transform="translate(165.375,1.0625)"/>
</svg>
